<?xml version="1.0" encoding="UTF-8"?>
<svg id="Capa_1" data-name="Capa 1" xmlns="http://www.w3.org/2000/svg" version="1.1" viewBox="0 0 2158.1 1728">
  <defs>
    <style>
      .cls-1 {
        fill: #fff;
        stroke-width: 0px;
      }
    </style>
  </defs>
  <path class="cls-1" d="M1096.7,91.8l-32.2,126.6s24.2,18.9,25.9,63.7l75.5,75.4,76-127.2s-145.2-138.5-145.2-138.5Z"/>
  <polygon class="cls-1" points="1328.7 312.5 1241.9 230.3 1165.9 357.5 1239.6 431.5 1328.7 312.5"/>
  <path class="cls-1" d="M1413.5,391.3l-66.6,109.9s-12.3,21.2-35.1,2.6c-22.8-18.5-72.2-72.4-72.2-72.4l89-119,84.8,78.8Z"/>
  <path class="cls-1" d="M1561.1,532.2l-7.2-4.3-56.8-54.1-70,117s-9.4,14.4,6.4,28.8l53.4,36.6,74.2-124h0Z"/>
  <polygon class="cls-1" points="1635.1 575.9 1558 704.9 1486.9 656.2 1561.1 532.2 1635.1 575.9"/>
  <polygon class="cls-1" points="1709.3 619.5 1629.4 753 1558 704.9 1635.1 575.9 1709.3 619.5"/>
  <polygon class="cls-1" points="1783.3 663.1 1701.7 799.7 1629.4 753 1709.3 619.5 1783.3 663.1"/>
  <polygon class="cls-1" points="1857.4 706.8 1774 846.5 1701.7 799.7 1783.3 663.1 1857.4 706.8"/>
  <path class="cls-1" d="M1881.3,882.5c-11.3,23.9-32.3,12.3-32.3,12.3l-75.1-48.3,83.4-139.7,66.2,39.1-42.3,136.5Z"/>
  <path class="cls-1" d="M1429.7,755.9l-98.2,150.5-67.3-42.2,82.2-137.8s12.4-16.6,30.6-6.7l52.7,36.2Z"/>
  <polygon class="cls-1" points="1500.6 804.4 1404.2 952.1 1331.5 906.4 1429.7 755.9 1500.6 804.4"/>
  <polygon class="cls-1" points="1477.1 997.7 1404.2 952.1 1500.6 804.4 1571.9 852.3 1477.1 997.7"/>
  <polygon class="cls-1" points="1644.1 898.9 1549.8 1043.4 1477.1 997.7 1571.9 852.3 1644.1 898.9"/>
  <polygon class="cls-1" points="1716.2 945.5 1622.7 1089.1 1549.8 1043.4 1644.1 898.9 1716.2 945.5"/>
  <polygon class="cls-1" points="1788.4 992.2 1695.4 1134.7 1622.7 1089.1 1716.2 945.5 1788.4 992.2"/>
  <path class="cls-1" d="M1810.6,1122.4c6.8-4.9,9-15.4,9-15.4l17.9-65.3c3.1-18.4-9-23.7-9-23.7l-40.1-25.9-93,142.6,52.8,33.1,62.4-45.5h0Z"/>
  <path class="cls-1" d="M1518.5,1248.6l104.2-159.5,125.5,78.7-156.4,114s-12.4,9-25.6,0l-47.7-33.1Z"/>
  <polygon class="cls-1" points="1448.1 1199.5 1518.5 1248.6 1622.7 1089.1 1549.8 1043.4 1448.1 1199.5"/>
  <polygon class="cls-1" points="1377.5 1150.3 1477.1 997.7 1549.8 1043.4 1448.1 1199.5 1377.5 1150.3"/>
  <polygon class="cls-1" points="1307.1 1101.1 1404.2 952.1 1477.1 997.7 1377.5 1150.3 1307.1 1101.1"/>
  <polygon class="cls-1" points="1236.6 1052.1 1331.5 906.4 1404.2 952.1 1307.1 1101.1 1236.6 1052.1"/>
  <path class="cls-1" d="M1188.1,990.1l76.1-126,67.3,42.2-94.9,145.7-44.8-31.3s-14.4-11.5-3.7-30.6h0Z"/>
  <path class="cls-1" d="M1076.8,1178.2l130.8,79.4,55.8-79.9-112.7-78.6s-15.8-11.8-30.7,6.6l-43.2,72.5h0Z"/>
  <path class="cls-1" d="M1151.4,1338.1l56.2-80.5-130.8-79.4-41.7,70.1s-9.9,16.4,7.9,29.8l108.5,60.1h0Z"/>
  <polygon class="cls-1" points="1333.8 1226.8 1263.4 1177.7 1151.4 1338.1 1226.5 1379.8 1333.8 1226.8"/>
  <path class="cls-1" d="M1438.1,1344.3c14.7-3.3,16.9-14.9,16.9-14.9,4.8-18-11.2-25.9-11.2-25.9l-110-76.7-107.3,153s3.8,3,14.5,2.1l197-37.6h0Z"/>
  <path class="cls-1" d="M1168.7,522.2c-15.7-11.5-29.3,1.4-29.3,1.4l-115.4,98.6,92.3,58.6,95.3-115.8-42.8-42.7Z"/>
  <path class="cls-1" d="M1206.1,737.9l-89.9-57.1,95.3-115.8,49.5,49.3s12.1,11.2,3.2,26.3c-9,15-58.1,97.3-58.1,97.3h0Z"/>
  <polygon class="cls-1" points="1151.1 830.2 1047.6 764.4 1116.2 680.8 1206.1 737.9 1151.1 830.2"/>
  <polygon class="cls-1" points="938.7 695.2 1047.6 764.4 1116.2 680.8 1024 622.2 938.7 695.2"/>
  <polygon class="cls-1" points="964.9 864.9 1081.8 946.3 1151.1 830.2 1047.6 764.4 964.9 864.9"/>
  <polygon class="cls-1" points="841.1 778.5 964.9 864.9 1047.6 764.4 938.7 695.2 841.1 778.5"/>
  <polygon class="cls-1" points="1037.7 1020.3 1081.8 946.3 841.1 778.5 773.7 836.2 1037.7 1020.3"/>
  <polygon class="cls-1" points="855.4 997.9 1002.2 1079.5 1037.7 1020.3 910.2 931.4 855.4 997.9"/>
  <polygon class="cls-1" points="706.1 893.9 855.4 997.9 910.2 931.4 773.7 836.2 706.1 893.9"/>
  <polygon class="cls-1" points="800.7 1064.5 855.4 997.9 706.1 893.9 638.7 951.5 800.7 1064.5"/>
  <polygon class="cls-1" points="958.8 1152.4 800.7 1064.5 855.4 997.9 1002.2 1079.5 958.8 1152.4"/>
  <path class="cls-1" d="M898.5,1198c24.9,16.6,36.3-5.5,36.3-5.5l24-40.1-158.2-87.8-44.8,54.5,142.6,79Z"/>
  <path class="cls-1" d="M581.9,1010.9c-1-10.6,7.7-17.6,7.7-17.6l49-41.9,162,113-44.8,54.5-163-90.2s-9.9-5.8-11-17.8h0Z"/>
  <path class="cls-1" d="M915.7,387.6l111.4,116.5,47.9-40.8s15.3-17.3,1.2-31.4c-14.1-14.1-66.3-66.4-66.3-66.4,0,0-34.2,2.7-56.7-16.8l-37.4,38.9h0Z"/>
  <polygon class="cls-1" points="961.7 560.1 1027.1 504.1 915.7 387.6 869.3 435.7 854.7 448 961.7 560.1"/>
  <polygon class="cls-1" points="896.9 615.5 961.7 560.1 854.7 448 797.5 495.6 896.9 615.5"/>
  <polygon class="cls-1" points="831.6 671.3 896.9 615.5 797.5 495.6 731.7 550.7 831.6 671.3"/>
  <polygon class="cls-1" points="635.7 838.7 831.6 671.3 731.7 550.7 533.8 715.9 635.7 838.7"/>
  <polygon class="cls-1" points="570.4 894.5 467.9 771 533.8 715.9 635.7 838.7 570.4 894.5"/>
  <polygon class="cls-1" points="505 950.3 401.9 826.1 467.9 771 570.4 894.5 505 950.3"/>
  <path class="cls-1" d="M469.1,990.7c5.8-12.6,17.9-23.3,17.9-23.3l18-17.2-103.1-124.2-129.7,108.4,196.9,56.3h0Z"/>
  <path class="cls-1" d="M468.4,1041.6c-10.7-26.6.7-50.8.7-50.8l-196.9-56.3-87.8,73.3,103.3,73.3,30.6,42.8,150.1-82.4Z"/>
  <path class="cls-1" d="M468.4,1041.6c8.4,21.3,28.4,31.9,28.4,31.9l16.3,9.2-68.3,121.2-88-26.2-38.5-53.8,150.1-82.4h0Z"/>
  <polygon class="cls-1" points="541.7 1232.7 599.3 1130.4 513 1082.7 444.7 1203.9 541.7 1232.7"/>
  <polygon class="cls-1" points="683.3 1279.1 726.6 1201 599.3 1130.4 541.7 1232.7 683.3 1279.1"/>
  <polygon class="cls-1" points="862.6 1341.5 891.7 1292.5 726.6 1201 683.3 1279.1 862.6 1341.5"/>
  <polygon class="cls-1" points="967 1334.2 1158 1440 1083.8 1573.9 932.3 1392.4 967 1334.2"/>
  <path class="cls-1" d="M1170,1676.8l49-204.4s-2.9,0-7.1-2.4c-4.2-2.4-53.9-30-53.9-30l-74.2,133.9,86.2,102.8Z"/>
  <path class="cls-1" d="M1219,1472.4c4.2.6,7.4-.3,7.4-.3l66.4-10.8,26.4,142.9-138.8,84.4-10.3-11.9,49-204.4Z"/>
  <polygon class="cls-1" points="1377.1 1445.3 1292.8 1461.4 1319.2 1604.3 1349.8 1585.7 1401.1 1575.4 1377.1 1445.3"/>
  <polygon class="cls-1" points="1461.5 1429.2 1485.4 1558.6 1401.1 1575.4 1377.1 1445.3 1461.5 1429.2"/>
  <polygon class="cls-1" points="1545.8 1413 1569.6 1541.8 1485.4 1558.6 1461.5 1429.2 1545.8 1413"/>
  <path class="cls-1" d="M1569.6,1541.8l66.1-13.2,69.2-51.5-81.5-110.3-53,38.7s-3.9,3.3-9.6,4.5-15.1,3-15.1,3l23.8,128.8h0Z"/>
  <polygon class="cls-1" points="1773.8 1425.9 1692.8 1316.3 1623.5 1366.8 1705 1477.1 1773.8 1425.9"/>
  <polygon class="cls-1" points="1762.3 1265.7 1842.8 1374.5 1773.8 1425.9 1692.8 1316.3 1762.3 1265.7"/>
  <polygon class="cls-1" points="1911.7 1323.3 1842.8 1374.5 1762.3 1265.7 1831.7 1215 1911.7 1323.3"/>
  <path class="cls-1" d="M1994.8,1261.6l-83,61.7-80-108.2,53.8-39.3s4.1-3,5.7-6.2,103.6,92,103.6,92h0Z"/>
  <path class="cls-1" d="M2045.4,1158.7l-127.7-82.6-23.7,86.4s-.5,3.4-2.8,7.1l103.6,92,29.3-21.8,21.3-81.1h0Z"/>
  <polygon class="cls-1" points="2075.2 1046.5 1948.4 964.6 1917.7 1076.1 2045.4 1158.7 2075.2 1046.5"/>
  <polygon class="cls-1" points="2098.7 957.5 2075.2 1046.5 1948.4 964.6 1969.6 888.4 2098.7 957.5"/>
  <polygon class="cls-1" points="2123.4 863.7 2098.7 957.5 1969.6 888.4 1984 835.1 1999.6 790.7 2123.4 863.7"/>
  <polygon class="cls-1" points="1165.4 1697.7 1180.3 1688.7 932.3 1392.4 967 1334.2 891.7 1292.5 862.6 1341.5 683.3 1279.1 541.7 1232.7 444.7 1203.9 356.8 1177.7 318.2 1123.9 287.6 1081.1 184.3 1007.8 66.1 1102.8 181.6 1188.6 260.5 1311.6 812.7 1493.3 983.2 1697.7 1165.4 1697.7"/>
  <path class="cls-1" d="M1085.8,473.8c9.9-8.4,11.7-23.9,11.7-23.9l52.1,53.3s-10.5,1.9-17.9,8.2l-551.6,471.2s-12.7,11.7-12.5,28c.2,16.3,14.3,27.9,14.3,27.9l637.7,353.7s11.5,6.2,24.1,3.8l198.3-38s24.1-6.8,27.6-27.6c3.5-20.7-9.9-33-9.9-33l-6.7-5.1-293.8-205.2s-11.2-8.3-25.5-6-22.1,11.8-22.1,11.8l-4,5.6,67.2-112.7s-9.8,14.7-2.4,31.9c0,0,4.2,10.7,13.1,16l372.6,259.7s7.9,6.1,21,6.8,23.9-8.9,23.9-8.9l216.2-157.5s10.3-7.9,13-17.9c2.7-10,19.3-70.4,19.3-70.4l43.8-159.1,20.4-74.5,21.6-61.3,50.2,31.8-17.1,46.6-90.5,329.2s-.5,2.2-2.7,4.3-315.7,230-315.7,230c0,0-1.8,1.5-5.4,2.2s-331.6,63.4-331.6,63.4c0,0-3.3,1-6.7-1.5l-714-395.6s-12.1-6.8-19.5-19.4c-7.4-12.7-6-30-6-30,0,0,.5-17.3,17.1-32.4s590.5-505.4,590.5-505.4h0Z"/>
  <path class="cls-1" d="M1023.4,32.1l-42.1,165.1s-49.6,13.5-59.2,59c-9.6,45.5,7.2,64.8,7.2,64.8,0,0,12.6,30.2,50,41.1,27.2,8,47.9.5,47.9.5l59.8,59.4s10.9,7.6,10.6,27.9l52.1,53.3s15.8-4.6,30.6,10.2l91.1,90.8s9.6,8.9,10.3,21.6c.7,12.7-5.4,22.9-5.4,22.9l-329.9,552.6s-6.5,11.8-19.9,15.8-24.5-.9-24.5-.9l130.4,72.4s-12.5-10.8-14.7-24.6c-2.2-13.9,5-22.9,5-22.9l311.5-521.8s9.6-15.6,24.3-16.9c14.7-1.3,24.6,4.3,24.6,4.3l196.8,133.9,256.5,165.6s12,7.4,14.8,19.7c2.8,12.3,1,17.2,1,17.2l43-156.4s-5.2,18.5-23,24.1c-17.8,5.6-32.2-4.1-32.2-4.1l-237-153.4-192.7-132.1s-4.7-4-5.4-12.1c-.7-8.1,3.4-13.3,3.4-13.3l78.5-131.5,63-186.1-78.2-67.4-58.1,180.9-66.6,109.9s-5.5,8.5-15.2,10.2c-9.7,1.8-19.8-7.6-19.8-7.6l-221.4-221.8s.3-15.1-4.4-27.7-5.7-20.6-21.5-36l47.4-186.4h-88.6Z"/>
</svg>