<?xml version="1.0" encoding="UTF-8"?>
<svg id="Capa_1" data-name="Capa 1" xmlns="http://www.w3.org/2000/svg" viewBox="0 0 2158.15 1728">
  <defs>
    <style>
      .cls-1 {
        fill: #fff;
        stroke-width: 0px;
      }
    </style>
  </defs>
  <path class="cls-1" d="M1096.69,91.82l-32.16,126.6s24.25,18.95,25.92,63.72l75.48,75.36,75.96-127.2-145.2-138.48Z"/>
  <polygon class="cls-1" points="1328.65 312.5 1241.89 230.3 1165.93 357.5 1239.61 431.54 1328.65 312.5"/>
  <path class="cls-1" d="M1413.49,391.34l-66.6,109.92s-12.28,21.15-35.05,2.63c-22.77-18.52-72.23-72.35-72.23-72.35l89.04-119.04,84.84,78.84Z"/>
  <path class="cls-1" d="M1561.09,532.22l-7.2-4.32-56.76-54.12-69.96,117s-9.37,14.38,6.36,28.8l53.4,36.6,74.16-123.96Z"/>
  <polygon class="cls-1" points="1635.13 575.9 1557.97 704.9 1486.93 656.18 1561.09 532.22 1635.13 575.9"/>
  <polygon class="cls-1" points="1709.29 619.46 1629.37 753.02 1557.97 704.9 1635.13 575.9 1709.29 619.46"/>
  <polygon class="cls-1" points="1783.33 663.14 1701.73 799.7 1629.37 753.02 1709.29 619.46 1783.33 663.14"/>
  <polygon class="cls-1" points="1857.37 706.82 1773.97 846.5 1701.73 799.7 1783.33 663.14 1857.37 706.82"/>
  <path class="cls-1" d="M1881.33,882.48c-11.27,23.9-32.28,12.31-32.28,12.31l-75.07-48.29,83.4-139.68,66.24,39.12-42.29,136.54Z"/>
  <path class="cls-1" d="M1429.69,755.9l-98.16,150.48-67.32-42.24,82.2-137.76s12.41-16.62,30.6-6.72l52.68,36.24Z"/>
  <polygon class="cls-1" points="1500.61 804.38 1404.25 952.1 1331.53 906.38 1429.69 755.9 1500.61 804.38"/>
  <polygon class="cls-1" points="1477.09 997.7 1404.25 952.1 1500.61 804.38 1571.89 852.26 1477.09 997.7"/>
  <polygon class="cls-1" points="1644.13 898.94 1549.81 1043.42 1477.09 997.7 1571.89 852.26 1644.13 898.94"/>
  <polygon class="cls-1" points="1716.25 945.5 1622.65 1089.14 1549.81 1043.42 1644.13 898.94 1716.25 945.5"/>
  <polygon class="cls-1" points="1788.37 992.18 1695.37 1134.74 1622.65 1089.14 1716.25 945.5 1788.37 992.18"/>
  <path class="cls-1" d="M1810.57,1122.38c6.75-4.92,9-15.36,9-15.36l17.95-65.3c3.05-18.44-9.03-23.67-9.03-23.67l-40.13-25.87-93,142.56,52.8,33.12,62.4-45.48Z"/>
  <path class="cls-1" d="M1518.49,1248.62l104.16-159.48,125.52,78.72-156.4,113.97s-12.41,8.96-25.61-.07l-47.67-33.14Z"/>
  <polygon class="cls-1" points="1448.05 1199.54 1518.49 1248.62 1622.65 1089.14 1549.81 1043.42 1448.05 1199.54"/>
  <polygon class="cls-1" points="1377.49 1150.34 1477.09 997.7 1549.81 1043.42 1448.05 1199.54 1377.49 1150.34"/>
  <polygon class="cls-1" points="1307.05 1101.14 1404.25 952.1 1477.09 997.7 1377.49 1150.34 1307.05 1101.14"/>
  <polygon class="cls-1" points="1236.61 1052.06 1331.53 906.38 1404.25 952.1 1307.05 1101.14 1236.61 1052.06"/>
  <path class="cls-1" d="M1188.13,990.14l76.08-126,67.32,42.24-94.92,145.68-44.83-31.35s-14.38-11.47-3.65-30.57Z"/>
  <path class="cls-1" d="M1076.77,1178.18l130.8,79.44,55.8-79.92-112.68-78.6s-15.81-11.77-30.72,6.6l-43.2,72.48Z"/>
  <path class="cls-1" d="M1151.41,1338.14l56.16-80.52-130.8-79.44-41.73,70.08s-9.92,16.37,7.89,29.76l108.48,60.12Z"/>
  <polygon class="cls-1" points="1333.81 1226.78 1263.37 1177.7 1151.41 1338.14 1226.53 1379.78 1333.81 1226.78"/>
  <path class="cls-1" d="M1438.1,1344.35c14.68-3.31,16.92-14.94,16.92-14.94,4.84-18.01-11.17-25.88-11.17-25.88l-110.03-76.74-107.28,153s3.82,3.04,14.52,2.14l197.04-37.57Z"/>
  <path class="cls-1" d="M1168.73,522.24c-15.65-11.46-29.33,1.38-29.33,1.38l-115.43,98.6,92.28,58.56,95.28-115.8-42.8-42.74Z"/>
  <path class="cls-1" d="M1206.13,737.9l-89.88-57.12,95.28-115.8,49.52,49.34s12.14,11.22,3.16,26.26c-8.97,15.03-58.08,97.32-58.08,97.32Z"/>
  <polygon class="cls-1" points="1151.05 830.18 1047.61 764.42 1116.25 680.78 1206.13 737.9 1151.05 830.18"/>
  <polygon class="cls-1" points="938.65 695.18 1047.61 764.42 1116.25 680.78 1023.97 622.22 938.65 695.18"/>
  <polygon class="cls-1" points="964.93 864.86 1081.81 946.34 1151.05 830.18 1047.61 764.42 964.93 864.86"/>
  <polygon class="cls-1" points="841.09 778.46 964.93 864.86 1047.61 764.42 938.65 695.18 841.09 778.46"/>
  <polygon class="cls-1" points="1037.65 1020.26 1081.81 946.34 841.09 778.46 773.65 836.18 1037.65 1020.26"/>
  <polygon class="cls-1" points="855.37 997.94 1002.25 1079.54 1037.65 1020.26 910.18 931.37 855.37 997.94"/>
  <polygon class="cls-1" points="706.09 893.9 855.37 997.94 910.18 931.37 773.65 836.18 706.09 893.9"/>
  <polygon class="cls-1" points="800.65 1064.54 855.37 997.94 706.09 893.9 638.65 951.5 800.65 1064.54"/>
  <polygon class="cls-1" points="958.81 1152.38 800.65 1064.54 855.37 997.94 1002.25 1079.54 958.81 1152.38"/>
  <path class="cls-1" d="M898.51,1198.01c24.92,16.64,36.31-5.53,36.31-5.53l23.99-40.1-158.16-87.84-44.76,54.48,142.62,78.99Z"/>
  <path class="cls-1" d="M581.92,1010.94c-1.01-10.56,7.69-17.56,7.69-17.56l49.04-41.88,162,113.04-44.76,54.48-162.96-90.24s-9.86-5.79-11.01-17.84Z"/>
  <path class="cls-1" d="M915.73,387.62l111.36,116.52,47.88-40.8s15.29-17.33,1.2-31.44c-14.09-14.11-66.29-66.4-66.29-66.4,0,0-34.19,2.72-56.71-16.76l-37.44,38.88Z"/>
  <polygon class="cls-1" points="961.69 560.06 1027.09 504.14 915.73 387.62 869.29 435.74 854.65 447.98 961.69 560.06"/>
  <polygon class="cls-1" points="896.89 615.5 961.69 560.06 854.65 447.98 797.53 495.62 896.89 615.5"/>
  <polygon class="cls-1" points="831.61 671.3 896.89 615.5 797.53 495.62 731.65 550.7 831.61 671.3"/>
  <polygon class="cls-1" points="635.65 838.7 831.61 671.3 731.65 550.7 533.77 715.94 635.65 838.7"/>
  <polygon class="cls-1" points="570.37 894.5 467.89 771.02 533.77 715.94 635.65 838.7 570.37 894.5"/>
  <polygon class="cls-1" points="504.97 950.3 401.89 826.1 467.89 771.02 570.37 894.5 504.97 950.3"/>
  <path class="cls-1" d="M469.09,990.74c5.78-12.61,17.88-23.28,17.88-23.28l18-17.16-103.08-124.2-129.72,108.36,196.92,56.28Z"/>
  <path class="cls-1" d="M468.37,1041.57c-10.69-26.57.73-50.83.73-50.83l-196.92-56.28-87.84,73.32,103.32,73.32,30.6,42.84,150.11-82.37Z"/>
  <path class="cls-1" d="M468.37,1041.57c8.39,21.31,28.39,31.94,28.39,31.94l16.26,9.15-68.28,121.2-87.96-26.16-38.52-53.76,150.11-82.37Z"/>
  <polygon class="cls-1" points="541.69 1232.66 599.29 1130.42 513.01 1082.66 444.73 1203.86 541.69 1232.66"/>
  <polygon class="cls-1" points="683.29 1279.1 726.61 1200.98 599.29 1130.42 541.69 1232.66 683.29 1279.1"/>
  <polygon class="cls-1" points="862.57 1341.5 891.73 1292.54 726.61 1200.98 683.29 1279.1 862.57 1341.5"/>
  <polygon class="cls-1" points="966.97 1334.18 1158.01 1440.02 1083.85 1573.94 932.29 1392.38 966.97 1334.18"/>
  <path class="cls-1" d="M1170.01,1676.78l48.96-204.36s-2.89,0-7.08-2.4c-4.19-2.39-53.88-30-53.88-30l-74.16,133.92,86.16,102.84Z"/>
  <path class="cls-1" d="M1218.97,1472.42c4.22.56,7.44-.26,7.44-.26l66.36-10.78,26.4,142.92-138.84,84.36-10.32-11.88,48.96-204.36Z"/>
  <polygon class="cls-1" points="1377.13 1445.3 1292.77 1461.38 1319.17 1604.3 1349.77 1585.7 1401.13 1575.38 1377.13 1445.3"/>
  <polygon class="cls-1" points="1461.49 1429.22 1485.37 1558.58 1401.13 1575.38 1377.13 1445.3 1461.49 1429.22"/>
  <polygon class="cls-1" points="1545.85 1413.02 1569.61 1541.78 1485.37 1558.58 1461.49 1429.22 1545.85 1413.02"/>
  <path class="cls-1" d="M1569.61,1541.78l66.12-13.2,69.24-51.48-81.48-110.28-53,38.7s-3.94,3.31-9.57,4.5-15.07,3-15.07,3l23.76,128.76Z"/>
  <polygon class="cls-1" points="1773.85 1425.86 1692.85 1316.3 1623.49 1366.82 1704.97 1477.1 1773.85 1425.86"/>
  <polygon class="cls-1" points="1762.33 1265.66 1842.85 1374.5 1773.85 1425.86 1692.85 1316.3 1762.33 1265.66"/>
  <polygon class="cls-1" points="1911.73 1323.26 1842.85 1374.5 1762.33 1265.66 1831.69 1215.02 1911.73 1323.26"/>
  <path class="cls-1" d="M1994.77,1261.58l-83.04,61.68-80.04-108.24,53.84-39.27s4.05-2.96,5.68-6.21c1.63-3.25,103.56,92.04,103.56,92.04Z"/>
  <path class="cls-1" d="M2045.38,1158.66l-127.65-82.61-23.72,86.43s-.49,3.44-2.8,7.05l103.56,92.04,29.28-21.84,21.33-81.07Z"/>
  <polygon class="cls-1" points="2075.17 1046.54 1948.45 964.58 1917.73 1076.06 2045.38 1158.66 2075.17 1046.54"/>
  <polygon class="cls-1" points="2098.69 957.5 2075.17 1046.54 1948.45 964.58 1969.57 888.38 2098.69 957.5"/>
  <polygon class="cls-1" points="2123.41 863.66 2098.69 957.5 1969.57 888.38 1983.97 835.1 1999.57 790.7 2123.41 863.66"/>
  <polygon class="cls-1" points="1165.45 1697.66 1180.33 1688.66 932.29 1392.38 966.97 1334.18 891.73 1292.54 862.57 1341.5 683.29 1279.1 541.69 1232.66 444.73 1203.86 356.77 1177.7 318.25 1123.94 287.65 1081.1 184.33 1007.78 66.05 1102.77 181.57 1188.62 260.53 1311.62 812.72 1493.33 983.17 1697.66 1165.45 1697.66"/>
  <path class="cls-1" d="M1085.78,473.84c9.88-8.41,11.65-23.9,11.65-23.9l52.1,53.29s-10.51,1.9-17.92,8.23l-551.57,471.18s-12.69,11.71-12.54,28c.15,16.29,14.34,27.91,14.34,27.91l637.73,353.71s11.53,6.25,24.12,3.84l198.31-37.99s24.12-6.83,27.58-27.56c3.46-20.74-9.92-33.01-9.92-33.01l-6.66-5.12-293.83-205.21s-11.23-8.26-25.49-6c-14.26,2.26-22.07,11.78-22.07,11.78l-3.96,5.56,67.19-112.67s-9.76,14.71-2.39,31.94c0,0,4.21,10.68,13.06,16.02l372.57,259.67s7.92,6.13,20.96,6.82,23.95-8.94,23.95-8.94l216.15-157.53s10.31-7.87,12.97-17.88c2.65-10.01,19.31-70.45,19.31-70.45l43.76-159.08,20.4-74.52,21.6-61.32,50.19,31.85-17.07,46.63-90.52,329.22s-.49,2.16-2.72,4.26-315.7,229.98-315.7,229.98c0,0-1.75,1.5-5.38,2.19-3.63.69-331.58,63.41-331.58,63.41,0,0-3.3,1-6.7-1.53l-714.01-395.61s-12.08-6.79-19.49-19.45c-7.41-12.66-6.01-29.98-6.01-29.98,0,0,.46-17.34,17.11-32.38,16.65-15.04,590.5-505.38,590.5-505.38Z"/>
  <path class="cls-1" d="M1023.37,32.06l-42.12,165.12s-49.58,13.54-59.22,59c-9.63,45.46,7.22,64.8,7.22,64.8,0,0,12.64,30.21,49.95,41.13,27.17,7.95,47.89.55,47.89.55l59.76,59.4s10.9,7.56,10.58,27.88l52.1,53.29s15.79-4.61,30.56,10.15l91.13,90.75s9.63,8.88,10.3,21.56c.67,12.67-5.36,22.88-5.36,22.88l-329.86,552.59s-6.51,11.76-19.89,15.77c-13.38,4.01-24.5-.95-24.5-.95l130.37,72.4s-12.51-10.75-14.66-24.62c-2.15-13.87,5.05-22.88,5.05-22.88l311.5-521.82s9.6-15.6,24.3-16.92c14.7-1.33,24.59,4.32,24.59,4.32l196.76,133.92,256.5,165.58s12.04,7.39,14.84,19.73c2.8,12.34.99,17.16.99,17.16l43.02-156.39s-5.16,18.46-22.99,24.08c-17.83,5.61-32.2-4.13-32.2-4.13l-236.97-153.39-192.66-132.08s-4.7-4.01-5.43-12.13c-.74-8.12,3.41-13.35,3.41-13.35l78.48-131.52,63-186.15-78.2-67.38-58.12,180.93-66.6,109.92s-5.54,8.45-15.24,10.23c-9.71,1.78-19.81-7.6-19.81-7.6l-221.39-221.75s.35-15.06-4.41-27.7-5.68-20.63-21.51-36.02l47.4-186.36h-88.56Z"/>
</svg>