<?xml version="1.0" encoding="UTF-8"?>
<svg id="Capa_1" data-name="Capa 1" xmlns="http://www.w3.org/2000/svg" xmlns:xlink="http://www.w3.org/1999/xlink" version="1.1" viewBox="0 0 226 42">
  <defs>
    <style>
      .cls-1 {
        fill: url(#Degradado_sin_nombre);
        fill-opacity: .6;
      }

      .cls-1, .cls-2 {
        stroke-width: 0px;
      }

      .cls-3 {
        fill: none;
        stroke: #000;
      }

      .cls-2 {
        fill: #fff;
      }
    </style>
    <linearGradient id="Degradado_sin_nombre" data-name="Degradado sin nombre" x1="21.3" y1="24.2" x2="30.1" y2="21.4" gradientTransform="translate(0 44) scale(1 -1)" gradientUnits="userSpaceOnUse">
      <stop offset="0" stop-color="#18175a" stop-opacity=".4"/>
      <stop offset=".9" stop-color="#65719b" stop-opacity="0"/>
    </linearGradient>
  </defs>
  <path class="cls-2" d="M71.6,34h4.9l1.1-15.1c.1-1.8,0-4.2,0-4.2h0s.8,2.7,1.5,4.2l4.3,10.5h4.3l4.4-10.5c.6-1.6,1.4-4.2,1.4-4.2h0s0,2.4,0,4.2l1.1,15.1h4.9l-2.2-27h-5.2l-5.3,13.3c-.6,1.6-1.3,4-1.3,4h0s-.8-2.4-1.4-4l-5.3-13.3h-5.2l-2.2,27ZM102.9,24.3c0,5.5,4,10.1,10.4,10.1s7.8-2.8,7.8-2.8l-1.9-3.5s-2.5,2.1-5.6,2.1-5.5-1.7-5.8-5.1h13.4s.1-1.3.1-1.9c0-5.1-3-9.2-8.6-9.2s-9.8,4.2-9.8,10.1ZM108,21.9c.5-2.5,2.2-4,4.6-4s3.8,1.4,3.8,4h-8.5ZM125.4,26.9c0,6.5,5.4,7.3,8.1,7.3s1.5-.1,1.5-.1v-4.2s-.3,0-.9,0c-1.3,0-3.8-.5-3.8-3.6v-7.5h4.4v-3.8h-4.4v-5.6h-4.7v5.6h-2.6v3.8h2.5v8.1ZM138.1,34h4.8v-7.7c0-1.1.1-2.2.4-3.2.9-2.9,3.2-4.1,5.3-4.1s1.1,0,1.1,0v-4.8s-.4,0-.9,0c-3,0-5.3,2.2-6.2,5h0s0-.6,0-1.4v-3.3h-4.6v19.4ZM150.8,24.3c0,6,4.8,10.1,10.7,10.1s10.6-4.2,10.6-10.1-4.8-10.1-10.7-10.1-10.6,4.2-10.6,10.1ZM155.7,24.3c0-3.6,2.6-6,5.8-6s5.7,2.5,5.7,6-2.6,6-5.7,6-5.8-2.4-5.8-6ZM175.3,34h4.8v-8.9c0-.9,0-1.8.3-2.6.7-2.3,2.6-4,5.2-4s3.1,1.6,3.1,4v11.5h4.8v-12.5c0-5.1-2.4-7.4-6.7-7.4s-6,2.4-6.9,4h0s0-.6,0-1.3v-2.2h-4.6v19.4ZM197.8,11.3h4.8v-4.3h-4.8v4.3ZM197.8,34h4.8V14.6h-4.8v19.4ZM205.8,24.3c0,5.6,4.1,10.1,10.5,10.1s8-3.2,8-3.2l-1.9-3.4s-2.4,2.5-5.7,2.5-6-2.8-6-6.1,2.3-6,5.9-6,5.1,2.1,5.1,2.1l2.1-3.3s-2.4-2.9-7.4-2.9-10.5,4.6-10.5,10.1Z"/>
  <path class="cls-2" d="M47.8,3.5l11,34.1c.6,1.9-.8,3.9-2.9,3.9h-6.9c-2.2,0-4.1-1.4-4.8-3.5L33.4,3.9c-.6-1.9.8-3.9,2.9-3.9h6.8c2.2,0,4.1,1.4,4.8,3.5Z"/>
  <path class="cls-2" d="M34.2,28L26.2,2.4c-.4-1.4-1.8-2.4-3.3-2.4s-3.8,1.6-3.9,3.7l-1,18.7c0,.9,0,1.8.3,2.7l4.3,14.3c.4,1.3,1.5,2.1,2.9,2.1h4.1c1.3,0,2.5-.8,2.9-2.1l1.7-5.4c.6-2,.6-4.1,0-6Z"/>
  <path class="cls-1" d="M34.2,28L26.2,2.4c-.4-1.4-1.8-2.4-3.3-2.4s-3.8,1.6-3.9,3.7l-1,18.7c0,.9,0,1.8.3,2.7l4.3,14.3c.4,1.3,1.5,2.1,2.9,2.1h4.1c1.3,0,2.5-.8,2.9-2.1l1.7-5.4c.6-2,.6-4.1,0-6Z"/>
  <path class="cls-3" d="M34.2,28L26.2,2.4c-.4-1.4-1.8-2.4-3.3-2.4s-3.8,1.6-3.9,3.7l-1,18.7c0,.9,0,1.8.3,2.7l4.3,14.3c.4,1.3,1.5,2.1,2.9,2.1h4.1c1.3,0,2.5-.8,2.9-2.1l1.7-5.4c.6-2,.6-4.1,0-6Z"/>
  <path class="cls-2" d="M17.1,0h6.5c2,0,3.5,1.9,2.9,3.9l-10.5,34.4c-.6,2.1-2.6,3.5-4.8,3.5h-6.5c-2,0-3.5-1.9-2.9-3.9L12.3,3.5c.6-2.1,2.6-3.5,4.8-3.5Z"/>
</svg>