<?xml version="1.0" encoding="UTF-8"?>
<svg id="Capa_1" data-name="Capa 1" xmlns="http://www.w3.org/2000/svg" version="1.1" viewBox="0 0 292.2 56">
  <defs>
    <style>
      .cls-1 {
        fill: #fff;
        stroke-width: 0px;
      }
    </style>
  </defs>
  <g>
    <polygon class="cls-1" points="50.2 22.8 27.7 45.3 5.2 22.8 0 28 27.7 55.7 55.4 28 50.2 22.8"/>
    <polygon class="cls-1" points="32.9 35.5 32.9 35.5 42.7 25.7 42.7 25.7 47.9 20.5 42.7 15.3 35.3 7.9 30.1 13.1 30.1 13.1 22.7 20.5 27.9 25.7 35.3 18.4 37.5 20.5 27.7 30.3 17.9 20.5 32.9 5.5 27.7 .3 12.7 15.3 12.7 15.3 7.5 20.5 27.7 40.7 32.9 35.5"/>
  </g>
  <g>
    <path class="cls-1" d="M89.3,28v9h-2v-2.7c-1.2,1.4-3.2,3-7.3,3-7.1,0-10.4-4.2-10.4-9.5s4.2-9.6,10.4-9.6,7.7,2,9,5l-1.9,1c-1.4-3.3-4.8-4.1-7.2-4.1-5.1,0-8,2.8-8,8s2.8,7.3,8.2,7.3,6.9-1.6,7.2-5.4h-7.4v-2h9.4Z"/>
    <path class="cls-1" d="M91.3,18.6h10.5c2.9,0,7.2.6,7.2,5.1s-3.5,4.9-5.7,5l6,8.1h-2.7l-5.9-8.1h-7.2v8.1h-2.2v-18.2ZM93.5,26.8h7.8c3.2,0,5.6-.5,5.6-3.1s-2.4-3.1-5.6-3.1h-7.8v6.2Z"/>
    <path class="cls-1" d="M130.5,29.3c0,6.6-5.1,7.9-9.4,7.9s-9.4-1.4-9.4-7.9v-10.7h2.2v10.7c0,4.2,2.7,6.1,7.2,6.1s7.2-1.9,7.2-6.1v-10.7h2.2v10.7Z"/>
    <path class="cls-1" d="M133.4,18.6h10.7c3.7,0,7,1.1,7,5.2s-3.4,5.2-7,5.2h-8.5v7.8h-2.2v-18.2ZM135.6,27.1h7.9c3.7,0,5.5-.8,5.5-3.3s-1.9-3.3-5.5-3.3h-7.9v6.5Z"/>
    <path class="cls-1" d="M161.8,18.1c6.2,0,10.7,3.6,10.7,9.7s-5.4,9.4-10.7,9.4-10.7-3-10.7-9.4,4.5-9.7,10.7-9.7M161.8,35.3c4.4,0,8.4-2.4,8.4-7.9s-3.1-7.4-8.4-7.4-8.4,3.4-8.4,7.4,3.9,7.9,8.4,7.9"/>
    <path class="cls-1" d="M252.8,30.3c-.4,2-1.8,6.9-10.2,6.9s-10.3-3.2-10.3-9.8,3.3-9.3,10.6-9.3,9.3,5.3,9.6,6.3h-3.6c-.2-.6-1.6-3.2-5.9-3.2s-7.1,2.8-7.1,6.6,3,6.4,6.9,6.4,6-2.5,6.3-3.9h3.6Z"/>
    <path class="cls-1" d="M261,18.6h4.1l8.8,18.2h-3.8l-1.9-4.2h-10.5l-1.9,4.2h-3.8l9-18.2ZM266.9,29.6l-3.8-8.1-3.8,8.1h7.6Z"/>
    <path class="cls-1" d="M288.6,24.1c-.6-1.6-2.1-3-6.4-3s-4.8.6-4.8,2.3.5,1.6,4.1,2.1l4.3.7c4.1.6,6.5,2.2,6.5,5.3s-4.1,5.9-9,5.9c-7.8,0-9.7-3.9-10.1-5.2l3.4-1.1c.7,1.3,2,3.3,6.8,3.3s5.3-1,5.3-2.5-1.4-2-4-2.3l-4.4-.6c-4.2-.6-6.6-2.4-6.6-5.2,0-5.5,7.1-5.5,8.5-5.5,7.8,0,9.2,3.6,9.6,4.9l-3.4,1.1Z"/>
    <polygon class="cls-1" points="175.8 18.6 179.6 18.6 186.4 33.1 193.4 18.6 197.2 18.6 188.3 36.8 184.6 36.8 175.8 18.6"/>
    <path class="cls-1" d="M202.6,18.6h4.1l8.8,18.2h-3.8l-1.9-4.2h-10.5l-1.9,4.2h-3.8l9-18.2ZM208.5,29.6l-3.8-8.1-3.8,8.1h7.6Z"/>
    <polygon class="cls-1" points="216 18.6 219.6 18.6 219.6 33.6 232.8 33.6 232.8 36.8 216 36.8 216 18.6"/>
  </g>
</svg>