<?xml version="1.0" encoding="UTF-8"?>
<svg id="Capa_1" data-name="Capa 1" xmlns="http://www.w3.org/2000/svg" viewBox="0 0 1168.69 319.07">
  <defs>
    <style>
      .cls-1 {
        letter-spacing: -.02em;
      }

      .cls-2 {
        letter-spacing: 0em;
      }

      .cls-3 {
        font-family: SpecifyPERSONALExpanded-ThinIta, 'Specify PERSONAL Expanded';
        font-size: 34.56px;
        font-style: italic;
        font-weight: 200;
      }

      .cls-3, .cls-4 {
        fill: #fff;
      }

      .cls-4 {
        stroke-width: 0px;
      }

      .cls-5 {
        letter-spacing: -.26em;
      }
    </style>
  </defs>
  <path class="cls-4" d="M332.01,106.87v36.97h-8.04v-10.92c-5.04,5.88-13.19,12.15-30.07,12.15-29.04,0-42.74-17.4-42.74-39.13,0-25.75,17.4-39.46,42.64-39.46,17.82,0,31.52,8.04,37.08,20.6l-7.61,4.02c-5.88-13.38-19.67-16.99-29.77-16.99-21.01,0-33.06,11.63-33.06,32.95,0,17.21,11.63,29.97,33.88,29.97,13.6,0,28.22-6.59,29.45-22.14h-30.38v-8.04h38.62l.02.02Z"/>
  <path class="cls-4" d="M340.02,68.34h43.26c11.94,0,29.45,2.57,29.45,20.91,0,15.65-14.53,20.19-23.59,20.6l24.71,33.36h-11.22l-24.11-33.17h-29.45v33.17h-9.06s0-74.87,0-74.87ZM349.08,102.03h32.13c13.08,0,22.87-1.86,22.87-12.87s-9.79-12.78-22.87-12.78h-32.13v25.64h0Z"/>
  <path class="cls-4" d="M501.2,112.43c0,27.09-21.12,32.65-38.53,32.65s-38.53-5.56-38.53-32.65v-44.08h9.06v44.08c0,17.21,11.03,25.03,29.45,25.03s29.45-7.83,29.45-25.03v-44.08h9.06v44.08h.04Z"/>
  <path class="cls-4" d="M513.33,68.34h43.87c15.14,0,28.95,4.32,28.95,21.43s-13.8,21.53-28.95,21.53h-34.81v31.93h-9.06v-74.89ZM522.39,103.26h32.45c15.05,0,22.66-3.2,22.66-13.38s-7.61-13.49-22.66-13.49h-32.45v26.88h0Z"/>
  <path class="cls-4" d="M630.11,66.5c25.45,0,43.87,14.83,43.87,39.76,0,26.57-22.25,38.83-43.87,38.83s-43.87-12.26-43.87-38.83c0-24.93,18.44-39.76,43.87-39.76M630.11,137.05c18.23,0,34.61-9.69,34.61-32.45,0-16.69-12.87-30.49-34.61-30.49s-34.61,13.8-34.61,30.49c0,22.77,16.17,32.45,34.61,32.45"/>
  <path class="cls-4" d="M1003.77,116.55c-1.45,8.34-7.42,28.54-41.81,28.54-23.69,0-42.33-13.19-42.33-40.47,0-21.84,13.71-38.12,43.46-38.12,33.47,0,38.42,21.73,39.54,25.75h-14.62c-.82-2.57-6.59-13.19-24.11-13.19-20.71,0-29.36,11.63-29.36,27.2,0,17.21,12.45,26.27,28.54,26.27,17.1,0,24.62-10.2,26.05-15.96h14.62l.02-.02Z"/>
  <path class="cls-4" d="M1037.74,68.34h16.69l36.36,74.87h-15.44l-7.83-17.21h-43.15l-7.93,17.21h-15.55l36.86-74.87h-.02ZM1061.74,113.46l-15.65-33.36-15.65,33.36h31.31Z"/>
  <path class="cls-4" d="M1151.02,91.11c-2.38-6.7-8.45-12.45-26.27-12.45-9.88,0-19.87,2.47-19.87,9.38,0,3.2,1.86,6.59,16.78,8.45l17.71,2.68c16.78,2.57,26.68,9.06,26.68,21.62,0,17.71-16.89,24.3-36.86,24.3-32.13,0-39.96-15.87-41.71-21.53l14.12-4.43c2.68,5.45,8.24,13.38,28.02,13.38,11.95,0,21.84-3.91,21.84-10.4,0-4.84-5.56-8.04-16.28-9.38l-17.92-2.47c-17.3-2.38-26.98-9.88-26.98-21.32,0-22.46,29.14-22.46,34.92-22.46,32.24,0,37.79,14.94,39.65,20.09l-13.8,4.54h-.02Z"/>
  <polygon class="cls-4" points="687.31 68.34 702.96 68.34 731.09 128.08 759.72 68.34 775.37 68.34 738.7 143.23 723.46 143.23 687.31 68.34"/>
  <path class="cls-4" d="M797.71,68.34h16.69l36.36,74.87h-15.44l-7.83-17.21h-43.15l-7.93,17.21h-15.55l36.86-74.87h-.02ZM821.7,113.46l-15.65-33.36-15.65,33.36h31.31Z"/>
  <polygon class="cls-4" points="852.69 68.34 867.32 68.34 867.32 130.24 921.59 130.24 921.59 143.23 852.69 143.23 852.69 68.34"/>
  <g>
    <polygon class="cls-4" points="193.53 86.76 106.81 173.46 20.09 86.76 0 106.85 106.81 213.68 213.63 106.85 193.53 86.76"/>
    <polygon class="cls-4" points="126.88 135.73 126.88 135.73 164.58 98.03 164.58 98.03 184.69 77.92 164.58 57.81 136.17 29.4 116.06 49.49 116.06 49.49 87.63 77.92 107.74 98.03 136.17 69.6 144.49 77.92 106.77 115.64 69.05 77.92 126.88 20.11 106.77 0 48.96 57.81 28.85 77.92 106.77 155.84 126.88 135.73"/>
  </g>
  <text class="cls-3" transform="translate(251.15 231.91)"><tspan x="0" y="0">IDEAS CONST</tspan><tspan class="cls-1" x="306.85" y="0">R</tspan><tspan x="336.43" y="0">UYENDO PLUS</tspan><tspan class="cls-5" x="658.87" y="0">V</tspan><tspan class="cls-2" x="683.16" y="0">ALÍA</tspan></text>
</svg>